<svg width="64" height="64" xmlns="http://www.w3.org/2000/svg">

 <g>
  <title>background</title>
  <rect fill="none" id="canvas_background" height="402" width="582" y="-1" x="-1"/>
 </g>
 <g>
  <title>Layer 1</title>
  <circle id="svg_2" r="32" fill="#a52222" cy="32" cx="31.875768"/>
  <path opacity="0.2" id="svg_6" fill="#231F20" d="m42.461,44c-0.671,0 -1.326,-0.338 -1.705,-0.951c-0.58,-0.94 -0.287,-2.172 0.653,-2.752l10.124,-6.242c0.005,-0.018 0.007,-0.036 0.007,-0.056s-0.002,-0.038 -0.007,-0.056l-10.123,-6.24c-0.94,-0.58 -1.232,-1.812 -0.653,-2.752c0.58,-0.94 1.812,-1.232 2.752,-0.653l10.63,6.554l0.165,0.165c0.797,0.797 1.236,1.856 1.236,2.983c0,1.126 -0.439,2.186 -1.236,2.983l-0.166,0.166l-10.63,6.554c-0.326,0.201 -0.689,0.297 -1.047,0.297z"/>
  <path opacity="0.2" id="svg_9" fill="#231F20" d="m21.539,44c-0.358,0 -0.721,-0.096 -1.048,-0.298l-10.63,-6.554l-0.166,-0.166c-0.797,-0.796 -1.236,-1.856 -1.236,-2.982c0,-1.127 0.439,-2.187 1.236,-2.983l0.165,-0.165l10.63,-6.554c0.941,-0.58 2.172,-0.287 2.752,0.653c0.58,0.94 0.287,2.172 -0.653,2.752l-10.124,6.242c-0.005,0.018 -0.007,0.036 -0.007,0.056s0.002,0.038 0.007,0.056l10.124,6.242c0.94,0.58 1.232,1.812 0.653,2.752c-0.377,0.612 -1.033,0.949 -1.703,0.949z"/>
  <path opacity="0.2" id="svg_12" fill="#231F20" d="m25.5,53c-0.237,0 -0.479,-0.042 -0.714,-0.132c-1.032,-0.395 -1.548,-1.551 -1.154,-2.583l13,-34c0.395,-1.032 1.551,-1.549 2.583,-1.154c1.032,0.395 1.548,1.551 1.154,2.583l-13,34c-0.306,0.797 -1.064,1.286 -1.869,1.286z"/>
  <path id="svg_15" fill="#FFFFFF" d="m42.461,42c-0.671,0 -1.327,-0.337 -1.705,-0.95c-0.58,-0.94 -0.287,-2.173 0.653,-2.752l10.123,-6.241c0.01,-0.037 0.01,-0.076 0,-0.113l-10.122,-6.242c-0.94,-0.579 -1.233,-1.812 -0.653,-2.752c0.58,-0.94 1.811,-1.233 2.752,-0.652l10.631,6.554l0.166,0.165c1.644,1.646 1.644,4.321 0,5.967l-0.166,0.165l-10.631,6.554c-0.327,0.201 -0.69,0.297 -1.048,0.297z"/>
  <path id="svg_17" fill="#FFFFFF" d="m21.539,42c-0.358,0 -0.72,-0.096 -1.047,-0.298l-10.632,-6.554l-0.166,-0.165c-1.644,-1.646 -1.644,-4.321 0,-5.967l0.166,-0.165l10.631,-6.554c0.939,-0.581 2.173,-0.288 2.752,0.652c0.58,0.94 0.287,2.173 -0.653,2.752l-10.123,6.241c-0.01,0.037 -0.01,0.076 0,0.113l10.123,6.241c0.94,0.579 1.233,1.812 0.653,2.752c-0.378,0.615 -1.034,0.952 -1.704,0.952z"/>
  <path id="svg_19" fill="#FFFFFF" d="m25.5,51.001c-0.237,0 -0.479,-0.043 -0.714,-0.133c-1.032,-0.395 -1.548,-1.551 -1.154,-2.582l13,-34c0.395,-1.031 1.551,-1.55 2.583,-1.154c1.032,0.395 1.548,1.551 1.154,2.582l-13,34c-0.306,0.797 -1.064,1.287 -1.869,1.287z"/>
 </g>
</svg>